<mxfile host="app.diagrams.net" agent="Mozilla/5.0 (Windows NT 10.0; Win64; x64) AppleWebKit/537.36 (KHTML, like Gecko) Chrome/138.0.0.0 Safari/537.36" version="28.1.0">
  <diagram name="Página-1" id="KHofPTOXWd8qijtCDfdV">
    <mxGraphModel dx="1681" dy="579" grid="1" gridSize="10" guides="1" tooltips="1" connect="1" arrows="1" fold="1" page="1" pageScale="1" pageWidth="1169" pageHeight="827" math="0" shadow="0">
      <root>
        <mxCell id="0" />
        <mxCell id="1" parent="0" />
        <mxCell id="7W3nszLBOU2kQMFWizv6-1" value="Entrega de Resultados de Laboratorio" style="swimlane;childLayout=stackLayout;resizeParent=1;resizeParentMax=0;horizontal=1;startSize=20;horizontalStack=0;html=1;" vertex="1" parent="1">
          <mxGeometry x="-290" y="30" width="820" height="590" as="geometry" />
        </mxCell>
        <mxCell id="7W3nszLBOU2kQMFWizv6-2" value="Paciente" style="swimlane;startSize=20;horizontal=0;html=1;" vertex="1" parent="7W3nszLBOU2kQMFWizv6-1">
          <mxGeometry y="20" width="820" height="150" as="geometry" />
        </mxCell>
        <mxCell id="7W3nszLBOU2kQMFWizv6-4" value="&lt;font style=&quot;color: light-dark(rgb(255, 255, 255), rgb(255, 255, 255));&quot;&gt;Paciente solicita&lt;/font&gt;&lt;div&gt;&lt;font style=&quot;color: light-dark(rgb(255, 255, 255), rgb(255, 255, 255));&quot;&gt;&amp;nbsp;resultado&lt;/font&gt;&lt;/div&gt;" style="points=[[0.145,0.145,0],[0.5,0,0],[0.855,0.145,0],[1,0.5,0],[0.855,0.855,0],[0.5,1,0],[0.145,0.855,0],[0,0.5,0]];shape=mxgraph.bpmn.event;html=1;verticalLabelPosition=bottom;labelBackgroundColor=#ffffff;verticalAlign=top;align=center;perimeter=ellipsePerimeter;outlineConnect=0;aspect=fixed;outline=standard;symbol=general;fillColor=#008a00;fontColor=#ffffff;strokeColor=#005700;" vertex="1" parent="7W3nszLBOU2kQMFWizv6-2">
          <mxGeometry x="240" y="40" width="50" height="50" as="geometry" />
        </mxCell>
        <mxCell id="7W3nszLBOU2kQMFWizv6-54" value="" style="edgeStyle=none;curved=1;rounded=0;orthogonalLoop=1;jettySize=auto;html=1;fontSize=12;startSize=8;endSize=8;fillColor=#1ba1e2;strokeColor=#006EAF;" edge="1" parent="7W3nszLBOU2kQMFWizv6-2" source="7W3nszLBOU2kQMFWizv6-52" target="7W3nszLBOU2kQMFWizv6-53">
          <mxGeometry relative="1" as="geometry" />
        </mxCell>
        <mxCell id="7W3nszLBOU2kQMFWizv6-52" value="Acceder a&amp;nbsp;&lt;div&gt;resultados&lt;/div&gt;" style="whiteSpace=wrap;html=1;rounded=1;fillColor=#d0cee2;strokeColor=#56517e;" vertex="1" parent="7W3nszLBOU2kQMFWizv6-2">
          <mxGeometry x="630" y="40" width="120" height="50" as="geometry" />
        </mxCell>
        <mxCell id="7W3nszLBOU2kQMFWizv6-53" value="&lt;font style=&quot;color: light-dark(rgb(0, 0, 0), rgb(255, 255, 255));&quot;&gt;Resultados&amp;nbsp;&lt;/font&gt;&lt;div&gt;&lt;font style=&quot;color: light-dark(rgb(0, 0, 0), rgb(255, 255, 255));&quot;&gt;entregados&lt;/font&gt;&lt;/div&gt;" style="points=[[0.145,0.145,0],[0.5,0,0],[0.855,0.145,0],[1,0.5,0],[0.855,0.855,0],[0.5,1,0],[0.145,0.855,0],[0,0.5,0]];shape=mxgraph.bpmn.event;html=1;verticalLabelPosition=bottom;labelBackgroundColor=#ffffff;verticalAlign=top;align=center;perimeter=ellipsePerimeter;outlineConnect=0;aspect=fixed;outline=end;symbol=terminate2;fillColor=light-dark(#E51400,#D22010);fontColor=#ffffff;strokeColor=#B20000;" vertex="1" parent="7W3nszLBOU2kQMFWizv6-2">
          <mxGeometry x="500" y="40" width="50" height="50" as="geometry" />
        </mxCell>
        <mxCell id="7W3nszLBOU2kQMFWizv6-9" value="Técnico de laboratorio" style="swimlane;startSize=20;horizontal=0;html=1;" vertex="1" parent="7W3nszLBOU2kQMFWizv6-1">
          <mxGeometry y="170" width="820" height="135" as="geometry" />
        </mxCell>
        <mxCell id="7W3nszLBOU2kQMFWizv6-36" value="" style="edgeStyle=none;curved=1;rounded=0;orthogonalLoop=1;jettySize=auto;html=1;fontSize=12;startSize=8;endSize=8;fillColor=#1ba1e2;strokeColor=#006EAF;" edge="1" parent="7W3nszLBOU2kQMFWizv6-9" source="7W3nszLBOU2kQMFWizv6-34" target="7W3nszLBOU2kQMFWizv6-35">
          <mxGeometry relative="1" as="geometry" />
        </mxCell>
        <mxCell id="7W3nszLBOU2kQMFWizv6-34" value="Recolectar muestra" style="rounded=1;whiteSpace=wrap;html=1;fillColor=#d0cee2;strokeColor=#56517e;" vertex="1" parent="7W3nszLBOU2kQMFWizv6-9">
          <mxGeometry x="100" y="40" width="120" height="50" as="geometry" />
        </mxCell>
        <mxCell id="7W3nszLBOU2kQMFWizv6-35" value="Registrar examen en el sistema" style="whiteSpace=wrap;html=1;rounded=1;fillColor=#d0cee2;strokeColor=#56517e;" vertex="1" parent="7W3nszLBOU2kQMFWizv6-9">
          <mxGeometry x="450" y="40" width="120" height="50" as="geometry" />
        </mxCell>
        <mxCell id="7W3nszLBOU2kQMFWizv6-13" value="Sistema de laboratorio" style="swimlane;startSize=20;horizontal=0;html=1;" vertex="1" parent="7W3nszLBOU2kQMFWizv6-1">
          <mxGeometry y="305" width="820" height="160" as="geometry" />
        </mxCell>
        <mxCell id="7W3nszLBOU2kQMFWizv6-39" value="Validar resultados" style="whiteSpace=wrap;html=1;rounded=1;fillColor=#d0cee2;strokeColor=#56517e;" vertex="1" parent="7W3nszLBOU2kQMFWizv6-13">
          <mxGeometry x="450" y="65" width="120" height="50" as="geometry" />
        </mxCell>
        <mxCell id="7W3nszLBOU2kQMFWizv6-41" value="¿Resultados correctos?" style="points=[[0.25,0.25,0],[0.5,0,0],[0.75,0.25,0],[1,0.5,0],[0.75,0.75,0],[0.5,1,0],[0.25,0.75,0],[0,0.5,0]];shape=mxgraph.bpmn.gateway2;html=1;verticalLabelPosition=bottom;labelBackgroundColor=#ffffff;verticalAlign=top;align=center;perimeter=rhombusPerimeter;outlineConnect=0;outline=none;symbol=none;gwType=exclusive;fillColor=#fad7ac;strokeColor=#b46504;" vertex="1" parent="7W3nszLBOU2kQMFWizv6-13">
          <mxGeometry x="135" y="65" width="50" height="50" as="geometry" />
        </mxCell>
        <mxCell id="7W3nszLBOU2kQMFWizv6-43" value="" style="endArrow=classic;html=1;rounded=0;fontSize=12;startSize=8;endSize=8;curved=1;entryX=1;entryY=0.5;entryDx=0;entryDy=0;entryPerimeter=0;exitX=0;exitY=0.5;exitDx=0;exitDy=0;fillColor=#1ba1e2;strokeColor=#006EAF;" edge="1" parent="7W3nszLBOU2kQMFWizv6-13" source="7W3nszLBOU2kQMFWizv6-39" target="7W3nszLBOU2kQMFWizv6-41">
          <mxGeometry width="50" height="50" relative="1" as="geometry">
            <mxPoint x="240" y="-25" as="sourcePoint" />
            <mxPoint x="290" y="-75" as="targetPoint" />
          </mxGeometry>
        </mxCell>
        <mxCell id="7W3nszLBOU2kQMFWizv6-40" value="" style="edgeStyle=none;curved=1;rounded=0;orthogonalLoop=1;jettySize=auto;html=1;fontSize=12;startSize=8;endSize=8;fillColor=#1ba1e2;strokeColor=#006EAF;" edge="1" parent="7W3nszLBOU2kQMFWizv6-1" source="7W3nszLBOU2kQMFWizv6-35" target="7W3nszLBOU2kQMFWizv6-39">
          <mxGeometry relative="1" as="geometry" />
        </mxCell>
        <mxCell id="7W3nszLBOU2kQMFWizv6-42" value="" style="edgeStyle=none;curved=1;rounded=0;orthogonalLoop=1;jettySize=auto;html=1;fontSize=12;startSize=8;endSize=8;fillColor=#e51400;strokeColor=#B20000;" edge="1" parent="7W3nszLBOU2kQMFWizv6-1" source="7W3nszLBOU2kQMFWizv6-41" target="7W3nszLBOU2kQMFWizv6-34">
          <mxGeometry relative="1" as="geometry" />
        </mxCell>
        <mxCell id="7W3nszLBOU2kQMFWizv6-44" value="No" style="edgeLabel;html=1;align=center;verticalAlign=middle;resizable=0;points=[];fontSize=12;" vertex="1" connectable="0" parent="7W3nszLBOU2kQMFWizv6-42">
          <mxGeometry x="-0.5171" y="-1" relative="1" as="geometry">
            <mxPoint as="offset" />
          </mxGeometry>
        </mxCell>
        <mxCell id="7W3nszLBOU2kQMFWizv6-46" value="" style="endArrow=classic;html=1;rounded=0;fontSize=12;startSize=8;endSize=8;curved=0;exitX=0;exitY=0.5;exitDx=0;exitDy=0;exitPerimeter=0;entryX=0.5;entryY=0;entryDx=0;entryDy=0;fillColor=#1ba1e2;strokeColor=#006EAF;" edge="1" parent="7W3nszLBOU2kQMFWizv6-1" source="7W3nszLBOU2kQMFWizv6-4" target="7W3nszLBOU2kQMFWizv6-34">
          <mxGeometry width="50" height="50" relative="1" as="geometry">
            <mxPoint x="510" y="330" as="sourcePoint" />
            <mxPoint x="560" y="280" as="targetPoint" />
            <Array as="points">
              <mxPoint x="160" y="85" />
            </Array>
          </mxGeometry>
        </mxCell>
        <mxCell id="7W3nszLBOU2kQMFWizv6-47" value="" style="endArrow=classic;html=1;rounded=0;fontSize=12;startSize=8;endSize=8;curved=0;exitX=0;exitY=0.5;exitDx=0;exitDy=0;exitPerimeter=0;entryX=0.5;entryY=0;entryDx=0;entryDy=0;fillColor=#60a917;strokeColor=#2D7600;" edge="1" parent="7W3nszLBOU2kQMFWizv6-1" source="7W3nszLBOU2kQMFWizv6-41" target="7W3nszLBOU2kQMFWizv6-45">
          <mxGeometry width="50" height="50" relative="1" as="geometry">
            <mxPoint x="510" y="500" as="sourcePoint" />
            <mxPoint x="560" y="450" as="targetPoint" />
            <Array as="points">
              <mxPoint x="60" y="395" />
              <mxPoint x="60" y="560" />
              <mxPoint x="170" y="560" />
            </Array>
          </mxGeometry>
        </mxCell>
        <mxCell id="7W3nszLBOU2kQMFWizv6-49" value="Si" style="edgeLabel;html=1;align=center;verticalAlign=middle;resizable=0;points=[];fontSize=12;" vertex="1" connectable="0" parent="7W3nszLBOU2kQMFWizv6-47">
          <mxGeometry x="-0.7838" y="1" relative="1" as="geometry">
            <mxPoint as="offset" />
          </mxGeometry>
        </mxCell>
        <mxCell id="7W3nszLBOU2kQMFWizv6-28" value="Médico tratante" style="swimlane;startSize=20;horizontal=0;html=1;" vertex="1" parent="7W3nszLBOU2kQMFWizv6-1">
          <mxGeometry y="465" width="820" height="125" as="geometry" />
        </mxCell>
        <mxCell id="7W3nszLBOU2kQMFWizv6-45" value="Recibir resultados" style="rounded=1;whiteSpace=wrap;html=1;fillColor=#d0cee2;strokeColor=#56517e;" vertex="1" parent="7W3nszLBOU2kQMFWizv6-28">
          <mxGeometry x="110" y="45" width="120" height="50" as="geometry" />
        </mxCell>
        <mxCell id="7W3nszLBOU2kQMFWizv6-50" value="Analizar resultados" style="rounded=1;whiteSpace=wrap;html=1;fillColor=#d0cee2;strokeColor=#56517e;" vertex="1" parent="7W3nszLBOU2kQMFWizv6-28">
          <mxGeometry x="460" y="45" width="120" height="50" as="geometry" />
        </mxCell>
        <mxCell id="7W3nszLBOU2kQMFWizv6-51" value="" style="endArrow=classic;html=1;rounded=0;fontSize=12;startSize=8;endSize=8;curved=1;exitX=1;exitY=0.5;exitDx=0;exitDy=0;entryX=0;entryY=0.5;entryDx=0;entryDy=0;fillColor=#1ba1e2;strokeColor=#006EAF;" edge="1" parent="7W3nszLBOU2kQMFWizv6-28" source="7W3nszLBOU2kQMFWizv6-45" target="7W3nszLBOU2kQMFWizv6-50">
          <mxGeometry width="50" height="50" relative="1" as="geometry">
            <mxPoint x="350" y="-35" as="sourcePoint" />
            <mxPoint x="400" y="-85" as="targetPoint" />
          </mxGeometry>
        </mxCell>
        <mxCell id="7W3nszLBOU2kQMFWizv6-56" value="" style="endArrow=classic;html=1;rounded=0;fontSize=12;startSize=8;endSize=8;curved=0;exitX=1;exitY=0.5;exitDx=0;exitDy=0;entryX=0.5;entryY=1;entryDx=0;entryDy=0;fillColor=#1ba1e2;strokeColor=#006EAF;" edge="1" parent="7W3nszLBOU2kQMFWizv6-1" source="7W3nszLBOU2kQMFWizv6-50" target="7W3nszLBOU2kQMFWizv6-52">
          <mxGeometry width="50" height="50" relative="1" as="geometry">
            <mxPoint x="360" y="540" as="sourcePoint" />
            <mxPoint x="410" y="490" as="targetPoint" />
            <Array as="points">
              <mxPoint x="690" y="535" />
            </Array>
          </mxGeometry>
        </mxCell>
      </root>
    </mxGraphModel>
  </diagram>
</mxfile>
